<?xml version="1.0" encoding="utf-8"?>
<!-- Generator: Adobe Illustrator 26.3.0, SVG Export Plug-In . SVG Version: 6.00 Build 0)  -->
<svg version="1.1" id="Layer_1" xmlns="http://www.w3.org/2000/svg" xmlns:xlink="http://www.w3.org/1999/xlink" x="0px" y="0px"
	 viewBox="0 0 689.5 112.7" style="enable-background:new 0 0 689.5 112.7;" xml:space="preserve">
<style type="text/css">
	.st0{fill-rule:evenodd;clip-rule:evenodd;fill:#FFFFFF;}
	.st1{fill:#FFFFFF;}
</style>
<g>
	<path class="st0" d="M682.2,17.1c0.8,0,1.5,0.3,2.1,0.8c0.6,0.5,0.8,1.2,0.8,2c0,0.7-0.2,1.3-0.5,1.7c-0.4,0.5-0.8,0.8-1.5,1l2.1,3
		h-1.8l-1.8-2.8h-1.9v2.8h-1.5v-8.5H682.2L682.2,17.1z M679.7,21.6h2.1c0.5,0,1-0.1,1.3-0.4c0.3-0.3,0.5-0.7,0.5-1.2
		c0-0.5-0.2-0.9-0.5-1.2c-0.3-0.3-0.7-0.5-1.2-0.5h-2.2V21.6z"/>
	<path class="st0" d="M681.3,13.1c4.5,0,8.2,3.7,8.2,8.2c0,4.5-3.7,8.2-8.2,8.2c-4.5,0-8.2-3.7-8.2-8.2
		C673.1,16.8,676.8,13.1,681.3,13.1L681.3,13.1z M681.3,14.5c-3.7,0-6.8,3-6.8,6.8c0,3.7,3,6.8,6.8,6.8c3.8,0,6.8-3,6.8-6.8
		C688.1,17.5,685.1,14.5,681.3,14.5z"/>
	<path class="st0" d="M126.7,71V57h24.8V46.1h-24.8V33h28.1V21.7h-40.4v60.5h41.4V71H126.7L126.7,71z M217.3,35
		c-6.2,0-11.5,2.9-14.8,7.6c-2.9-5.1-7.8-7.6-13.5-7.6c-5.3,0-9.8,2.1-12.9,6.1v-5.4h-11.4v46.5h11.9V58.9c0-8.3,3.7-12.2,9-12.2
		c5,0,7.8,3.5,7.8,11v24.6h11.9V58.9c0-8.3,3.7-12.2,9.1-12.2c4.8,0,7.8,3.5,7.8,11v24.6h11.9V55.6C234.1,41.4,227.1,35,217.3,35
		L217.3,35z M269,35c-5.5,0-9.9,2-12.9,6.1v-5.4h-11.4V99h11.9V77.3c3.1,3.8,7.2,5.6,12.4,5.6c11.5,0,20.4-9.3,20.4-24
		C289.5,44.4,280.6,35,269,35L269,35z M267,71.9c-6,0-10.5-4.8-10.5-12.9c0-8,4.5-12.9,10.5-12.9c5.9,0,10.5,4.8,10.5,12.9
		C277.4,67,272.9,71.9,267,71.9L267,71.9z M317,82.9c13,0,22.5-9.9,22.5-24c0-14-9.5-24-22.5-24c-13,0-22.6,9.9-22.6,24
		C294.4,73,303.9,82.9,317,82.9L317,82.9z M317,71.9c-6,0-10.5-4.8-10.5-12.9c0-8,4.6-12.9,10.5-12.9c5.9,0,10.5,4.8,10.5,12.9
		C327.4,67,322.9,71.9,317,71.9L317,71.9z M401.7,35.7l-10,31.5l-9.8-31.5h-10.1l-10.1,31.5l-9.7-31.5h-11.2l14.8,46.5h11.4
		l9.5-28.9l9.2,28.9h11.4l14.9-46.5H401.7L401.7,35.7z M456.8,59.2c0-15-9.3-24.1-21.4-24.1c-12.5,0-21.9,10-21.9,24
		c0,13.8,9.2,24,23.4,24c7.4,0,13.1-2.6,16.9-7.5l-6.3-7.8c-2.8,3-6,4.5-10.3,4.5c-6.3,0-10.6-3.5-11.8-9.3h31.1
		C456.7,61.7,456.8,60.2,456.8,59.2L456.8,59.2z M435.5,45.2c5.3,0,9.2,3.8,10.1,9.7h-20.2C426.2,49,430.1,45.2,435.5,45.2
		L435.5,45.2z M476.1,41.9v-6.1h-11.4v46.5h11.9v-22c0-8.9,4.3-13,10.9-13c0.9,0,1.7,0.1,2.7,0.2V35C483.9,35,479,37.4,476.1,41.9z"
		/>
	<path class="st0" d="M525.6,80.7c9.3,0,17-3.8,22.1-10.8l-7.9-8.3c-3.6,4.8-8.1,7.2-13.4,7.2c-10,0-17.1-8-17.1-19.4
		c0-11.4,7.1-19.4,17.1-19.4c5.3,0,9.8,2.4,13.4,7.1l7.9-8.3c-5-6.9-12.7-10.7-22-10.7c-16.6,0-29,13.1-29,31.3
		C496.6,67.6,509,80.7,525.6,80.7L525.6,80.7z M571.3,32.4c-6.6,0-13.2,2-17.7,5.6l4.3,9.4c3-2.7,7.5-4.3,11.8-4.3
		c6.4,0,9.5,3.4,9.5,9.2h-9.5c-12.5,0-17.6,5.7-17.6,13.9c0,8,5.7,14.1,15.3,14.1c6,0,10.3-2.3,12.5-6.5v5.8h11.1V53.1
		C591.1,39,583.9,32.4,571.3,32.4L571.3,32.4z M570.4,71.3c-4.2,0-6.7-2.2-6.7-5.6c0-3.1,1.8-5.4,7.3-5.4h8.2v4.8
		C577.8,69.2,574.4,71.3,570.4,71.3L570.4,71.3z M611.7,39.3v-6.1h-11.4v46.5h11.9v-22c0-8.9,4.3-13,10.9-13c0.9,0,1.7,0.1,2.7,0.2
		V32.4C619.5,32.4,614.6,34.8,611.7,39.3L611.7,39.3z M672.7,56.6c0-15-9.3-24.1-21.4-24.1c-12.5,0-21.9,10-21.9,24
		c0,13.8,9.2,24,23.4,24c7.4,0,13.1-2.6,16.9-7.5l-6.3-7.8c-2.8,3-5.9,4.5-10.3,4.5c-6.3,0-10.6-3.5-11.8-9.3h31.1
		C672.6,59.1,672.7,57.6,672.7,56.6L672.7,56.6z M651.5,42.6c5.3,0,9.2,3.8,10.1,9.7h-20.2C642.1,46.4,646,42.6,651.5,42.6z"/>
	<path class="st0" d="M50.7,4.4c13,0,24.8,4.9,33.8,12.9C76.4,11,66.1,7.2,55.1,7.2C30,7.2,9.4,26.6,7.4,51.2c7.1-3.1,15-3.1,23.2,1
		c-9.7,0.3-16,0.3-23.3,5.1c0.7,15,8.2,28.1,19.6,36.4c1.7,1.2,3.2,1.7,4.6,0.3c1-1.4,2.1-2.6,3.4-3.8c4.1-3.8,7.7-5.1,13.3-5
		c7.8,0.1,13.7,3.9,21.7,3.1c2.3-0.4,0.4,3.8-6.3,4.9c-4.2,0.6-10.1-1.5-11.9-0.9c-1.4,0.4-0.6,1.5,0.8,2.4
		c6.2,4.3,19.9,0.1,26.1-3.9c7.9-5.2,10.2-2.4,5.5,2.3c0.1-0.1,0.2-0.2,0.3-0.2c-9.3,8.3-21.3,12.9-33.8,12.9
		C22.7,105.7,0,83,0,55.1C0,27.1,22.7,4.4,50.7,4.4z"/>
	<path class="st0" d="M30.8,28.9c1.8,4.6,6.1,11.5,11.3,15.6c7.9,6.2,15.7,2,23.3-4.4c3.8-3.1,7.1-6.5,10.8-9.7
		c2.7-2.3,5.6-4.6,8.3-6.1c0,0-5.9,1.5-11.1,6.7c0,0-0.5-11.5,17.2-10.7C85.8,36.6,78,31.6,75.3,33.6c-3.8,4.5-7.1,9.7-10,15.4
		c-2.5,4.9-3.7,10.2-3.7,15.9c-0.2,7.1,1.3,14,4,20.6l-7.8-1.1C41.3,73.5,31.4,47.2,30.8,28.9z"/>
	<path class="st0" d="M51.1,29.4c-3.7,0-6.6,3.2-6.6,7.2c0,4,3,7.2,6.6,7.2c3.7,0,6.7-3.2,6.7-7.2C57.8,32.6,54.8,29.4,51.1,29.4z"
		/>
	<g>
		<g>
			<path class="st1" d="M501.2,87.9v6.2c1-1.2,2.2-1.7,3.8-1.7c1.5,0,2.7,0.5,3.7,1.6c1,1.1,1.5,2.4,1.5,4c0,1.6-0.5,3-1.5,4.1
				c-1,1.1-2.2,1.6-3.7,1.6c-1.6,0-2.9-0.6-3.9-1.8v1.6h-2.5V87.9H501.2z M502.1,100.5c0.6,0.7,1.4,1,2.4,1c0.9,0,1.7-0.3,2.3-1
				c0.6-0.7,0.9-1.5,0.9-2.5c0-1-0.3-1.8-0.9-2.4c-0.6-0.7-1.4-1-2.3-1c-0.9,0-1.7,0.3-2.4,1c-0.6,0.7-1,1.5-1,2.4
				C501.1,99,501.4,99.8,502.1,100.5z"/>
			<path class="st1" d="M513.5,92.5l3.7,8.9l3.3-8.9h2.6l-4.3,11c-0.2,0.5-0.4,1-0.6,1.4c-0.2,0.4-0.4,0.8-0.7,1.2
				c-0.3,0.5-0.6,0.8-1,1.1c-0.3,0.3-0.8,0.5-1.3,0.7c-0.5,0.2-1.1,0.3-1.7,0.3c-0.8,0-1.6-0.2-2.4-0.5v-2.3
				c0.8,0.3,1.5,0.5,2.1,0.5c0.7,0,1.2-0.1,1.6-0.4c0.4-0.3,0.8-0.8,1.1-1.4l-5.1-11.7H513.5z"/>
			<path class="st1" d="M532,88.6l5.6,9l5.6-9h2.5v14.8h-2.5V93l-4.7,7.4h-1.7L532,93v10.4h-2.5V88.6H532z"/>
			<path class="st1" d="M549.1,99.6c1.6,1.2,3.5,1.8,5.7,1.8c1,0,1.8-0.2,2.4-0.6c0.6-0.4,0.9-0.9,0.9-1.6c0-0.3-0.1-0.6-0.2-0.8
				c-0.2-0.2-0.3-0.4-0.5-0.6c-0.2-0.1-0.5-0.3-0.9-0.4c-0.4-0.1-0.7-0.2-1-0.2c-0.3-0.1-0.7-0.1-1.2-0.2c-0.5-0.1-0.9-0.1-1.2-0.2
				c-0.3-0.1-0.7-0.2-1.2-0.3c-0.5-0.1-0.9-0.3-1.2-0.5c-0.3-0.2-0.7-0.5-1-0.7c-0.3-0.3-0.6-0.6-0.7-1.1c-0.2-0.4-0.2-0.9-0.2-1.4
				c0-1.4,0.5-2.5,1.6-3.3c1.1-0.8,2.6-1.1,4.4-1.1c2,0,3.8,0.5,5.6,1.4l-1,2c-1.5-0.8-3.1-1.2-4.7-1.2c-1.1,0-1.9,0.2-2.4,0.6
				c-0.6,0.4-0.8,0.9-0.8,1.5c0,0.3,0.1,0.6,0.2,0.8c0.1,0.2,0.3,0.4,0.5,0.6c0.2,0.1,0.5,0.3,0.8,0.4c0.3,0.1,0.6,0.2,0.9,0.3
				c0.3,0.1,0.6,0.1,1,0.2c0.4,0.1,0.7,0.1,0.9,0.1c0.2,0,0.5,0.1,0.9,0.2c0.4,0.1,0.7,0.2,0.9,0.2c0.2,0.1,0.5,0.2,0.8,0.3
				c0.4,0.1,0.6,0.3,0.8,0.4c0.2,0.1,0.4,0.3,0.7,0.5c0.3,0.2,0.4,0.4,0.6,0.7c0.1,0.2,0.2,0.5,0.3,0.8c0.1,0.3,0.1,0.7,0.1,1
				c0,1.5-0.6,2.7-1.7,3.4c-1.1,0.8-2.7,1.2-4.6,1.2c-1.3,0-2.5-0.2-3.6-0.6c-1.1-0.4-2.1-0.9-2.9-1.5L549.1,99.6z"/>
			<path class="st1" d="M562.5,96c0-2.2,0.7-4.1,2.2-5.5c1.4-1.4,3.3-2.2,5.5-2.2c1.4,0,2.6,0.3,3.8,0.9c1.1,0.6,2,1.4,2.7,2.5
				l-2,1.6c-0.4-0.8-1-1.4-1.9-1.9c-0.8-0.5-1.7-0.7-2.6-0.7c-1.5,0-2.8,0.5-3.7,1.5c-1,1-1.4,2.3-1.4,3.8c0,1.5,0.5,2.8,1.5,3.8
				c1,1,2.2,1.5,3.7,1.5c1.3,0,2.4-0.4,3.3-1.2c0.9-0.8,1.3-1.8,1.3-3h-5v-2.1h7.7v1.3c0,2.2-0.7,3.9-2.1,5.3
				c-1.4,1.4-3.1,2.1-5.3,2.1c-2.2,0-4.1-0.7-5.5-2.1C563.2,100.1,562.5,98.3,562.5,96z"/>
			<path class="st1" d="M584.8,99.6c1.6,1.2,3.5,1.8,5.7,1.8c1,0,1.8-0.2,2.4-0.6c0.6-0.4,0.9-0.9,0.9-1.6c0-0.3-0.1-0.6-0.2-0.8
				c-0.2-0.2-0.3-0.4-0.5-0.6c-0.2-0.1-0.5-0.3-0.9-0.4c-0.4-0.1-0.7-0.2-1-0.2c-0.3-0.1-0.7-0.1-1.2-0.2c-0.5-0.1-0.9-0.1-1.2-0.2
				c-0.3-0.1-0.7-0.2-1.2-0.3c-0.5-0.1-0.9-0.3-1.2-0.5c-0.3-0.2-0.7-0.5-1-0.7c-0.3-0.3-0.6-0.6-0.7-1.1c-0.2-0.4-0.2-0.9-0.2-1.4
				c0-1.4,0.5-2.5,1.6-3.3c1.1-0.8,2.6-1.1,4.4-1.1c2,0,3.8,0.5,5.6,1.4l-1,2c-1.5-0.8-3.1-1.2-4.7-1.2c-1.1,0-1.9,0.2-2.4,0.6
				c-0.6,0.4-0.8,0.9-0.8,1.5c0,0.3,0.1,0.6,0.2,0.8c0.1,0.2,0.3,0.4,0.5,0.6c0.2,0.1,0.5,0.3,0.8,0.4c0.3,0.1,0.6,0.2,0.9,0.3
				c0.3,0.1,0.6,0.1,1,0.2c0.4,0.1,0.7,0.1,0.9,0.1c0.2,0,0.5,0.1,0.9,0.2c0.4,0.1,0.7,0.2,0.9,0.2c0.2,0.1,0.5,0.2,0.8,0.3
				c0.4,0.1,0.6,0.3,0.8,0.4c0.2,0.1,0.4,0.3,0.7,0.5c0.3,0.2,0.4,0.4,0.6,0.7c0.1,0.2,0.2,0.5,0.3,0.8c0.1,0.3,0.1,0.7,0.1,1
				c0,1.5-0.6,2.7-1.7,3.4c-1.1,0.8-2.7,1.2-4.6,1.2c-1.3,0-2.5-0.2-3.6-0.6c-1.1-0.4-2.1-0.9-2.9-1.5L584.8,99.6z"/>
			<path class="st1" d="M597.5,92.5h1.9v-3.7h2.5v3.7h3.3v2.1h-3.3v5c0,0.7,0.1,1.1,0.4,1.4c0.3,0.3,0.7,0.4,1.4,0.4
				c0.7,0,1.3-0.1,1.9-0.4v2.1c-0.8,0.3-1.7,0.5-2.5,0.5c-1.2,0-2.1-0.3-2.7-1s-0.9-1.5-0.9-2.6v-5.4h-1.9V92.5z"/>
			<path class="st1" d="M606.6,98c0-1.7,0.5-3,1.5-4.1c1-1.1,2.3-1.6,3.8-1.6c1.6,0,2.9,0.6,3.8,1.9v-1.7h2.4v10.9h-2.4v-1.7
				c-1,1.3-2.2,1.9-3.9,1.9c-1.5,0-2.8-0.5-3.8-1.6C607.1,101,606.6,99.7,606.6,98z M609.1,98c0,1,0.3,1.8,1,2.5
				c0.6,0.7,1.4,1,2.3,1c0.9,0,1.7-0.3,2.4-1c0.6-0.7,1-1.5,1-2.5c0-1-0.3-1.8-1-2.4c-0.6-0.7-1.4-1-2.4-1c-0.9,0-1.7,0.3-2.4,1
				C609.4,96.2,609.1,97,609.1,98z"/>
			<path class="st1" d="M620.1,92.5h2v-1.1c0-1.3,0.4-2.2,1.1-3c0.8-0.7,1.8-1.1,3.2-1.1c1,0,1.8,0.1,2.5,0.4V90
				c-0.6-0.2-1.3-0.3-2-0.3c-0.7,0-1.3,0.2-1.7,0.6c-0.4,0.4-0.6,0.9-0.6,1.6v0.7h3.9v2.1h-3.9v8.8h-2.5v-8.8h-2V92.5z"/>
			<path class="st1" d="M629.4,92.5h2v-1.1c0-1.3,0.4-2.2,1.1-3c0.8-0.7,1.8-1.1,3.2-1.1c1,0,1.8,0.1,2.5,0.4V90
				c-0.6-0.2-1.3-0.3-2-0.3c-0.7,0-1.3,0.2-1.7,0.6c-0.4,0.4-0.6,0.9-0.6,1.6v0.7h3.9v2.1h-3.9v8.8h-2.5v-8.8h-2V92.5z"/>
			<path class="st1" d="M639.3,89.4c0-0.5,0.2-0.8,0.5-1.2c0.3-0.3,0.7-0.5,1.2-0.5c0.5,0,0.8,0.2,1.2,0.5c0.3,0.3,0.5,0.7,0.5,1.2
				s-0.2,0.8-0.5,1.2c-0.3,0.3-0.7,0.5-1.2,0.5c-0.5,0-0.8-0.2-1.2-0.5C639.4,90.3,639.3,89.9,639.3,89.4z M639.6,103.5V92.5h2.6
				v10.9H639.6z"/>
			<path class="st1" d="M647.7,92.5v1.6c0.9-1.2,2.1-1.8,3.6-1.8c1.3,0,2.3,0.4,3.2,1.2c0.8,0.8,1.2,1.9,1.2,3.2v6.7h-2.5v-6.2
				c0-0.8-0.2-1.5-0.7-2c-0.5-0.5-1.1-0.8-1.8-0.8c-0.8,0-1.5,0.3-2,0.9c-0.5,0.6-0.8,1.4-0.8,2.3v5.6h-2.5V92.5H647.7z"/>
			<path class="st1" d="M657.8,97.9c0-1.6,0.5-2.9,1.5-4c1-1,2.3-1.6,3.8-1.6c1.6,0,2.9,0.6,3.9,1.8v-1.6h2.4v10.2
				c0,1.8-0.5,3.1-1.6,4.1c-1.1,1-2.6,1.4-4.5,1.4c-1.6,0-3.1-0.4-4.5-1.1v-2.3c1.3,0.8,2.7,1.2,4.3,1.2c1.2,0,2.2-0.3,2.9-0.9
				c0.7-0.6,1-1.4,1-2.5v-1.1c-0.9,1.2-2.2,1.8-3.9,1.8c-1.5,0-2.8-0.5-3.8-1.6C658.3,100.8,657.8,99.5,657.8,97.9z M660.3,97.9
				c0,0.9,0.3,1.7,0.9,2.3c0.6,0.6,1.4,0.9,2.3,0.9c1,0,1.8-0.3,2.4-0.9c0.6-0.6,0.9-1.4,0.9-2.4c0-1-0.3-1.8-0.9-2.4
				c-0.6-0.6-1.4-1-2.4-1c-0.9,0-1.7,0.3-2.4,1C660.6,96.2,660.3,97,660.3,97.9z"/>
		</g>
	</g>
</g>
</svg>
