<?xml version="1.0" encoding="utf-8"?>
<!-- Generator: Adobe Illustrator 26.3.0, SVG Export Plug-In . SVG Version: 6.00 Build 0)  -->
<svg version="1.1" id="Layer_1" xmlns="http://www.w3.org/2000/svg" xmlns:xlink="http://www.w3.org/1999/xlink" x="0px" y="0px"
	 viewBox="0 0 800 160.36" style="enable-background:new 0 0 800 160.36;" xml:space="preserve">
<style type="text/css">
	.st0{fill-rule:evenodd;clip-rule:evenodd;fill:#FFFFFF;}
</style>
<g>
	<g>
		<path class="st0" d="M78.3,16.22c15.99,0,30.57,6.02,41.61,15.91c-9.98-7.81-22.55-12.47-36.19-12.47
			c-30.9,0-56.23,23.84-58.65,54.16c8.72-3.77,18.42-3.86,28.52,1.19c-11.94,0.31-19.73,0.33-28.65,6.34
			c0.85,18.42,10.15,34.62,24.1,44.83c2.04,1.44,4,2.08,5.71,0.36c1.21-1.68,2.58-3.24,4.12-4.65c5.05-4.63,9.52-6.27,16.42-6.19
			c9.57,0.11,16.85,4.78,26.74,3.82c2.86-0.54,0.51,4.72-7.77,6c-5.2,0.8-12.49-1.8-14.6-1.16c-1.72,0.52-0.7,1.83,1.01,3.01
			c7.64,5.27,24.48,0.17,32.12-4.86c9.67-6.35,12.59-2.99,6.76,2.82c0.13-0.1,0.25-0.2,0.38-0.29
			c-11.43,10.24-26.17,15.91-41.61,15.91c-34.44,0-62.37-27.92-62.37-62.37C15.93,44.14,43.86,16.22,78.3,16.22z"/>
		<path class="st0" d="M53.9,46.35c2.22,5.62,7.52,14.21,13.86,19.24c9.67,7.66,19.3,2.4,28.69-5.38
			c4.65-3.85,8.79-7.96,13.26-11.91c3.28-2.89,6.89-5.67,10.23-7.47c0,0-7.29,1.8-13.65,8.26c0,0-0.66-14.21,21.16-13.15
			c-5.93,19.92-15.51,13.82-18.82,16.21c-4.66,5.55-8.74,11.93-12.34,18.98c-3.1,5.99-4.6,12.51-4.53,19.55
			c-0.23,8.75,1.65,17.18,4.93,25.39l-9.57-1.4C66.81,101.28,54.52,68.95,53.9,46.35z"/>
		<path class="st0" d="M78.86,46.99c-4.52,0-8.19,3.95-8.19,8.82c0,4.88,3.67,8.84,8.19,8.84c4.52,0,8.19-3.96,8.19-8.84
			C87.05,50.94,83.38,46.99,78.86,46.99z"/>
	</g>
	<path class="st0" d="M775.12,26.68c1.04,0,1.91,0.33,2.58,0.99c0.68,0.66,1.02,1.49,1.02,2.51c0,0.83-0.22,1.55-0.67,2.13
		c-0.44,0.6-1.04,0.99-1.79,1.2l2.55,3.65h-2.18l-2.27-3.41h-2.33v3.41h-1.81V26.68H775.12L775.12,26.68z M772.04,32.23h2.64
		c0.66,0,1.19-0.18,1.59-0.54c0.41-0.35,0.6-0.83,0.6-1.42c0-0.59-0.2-1.07-0.59-1.45c-0.39-0.38-0.89-0.57-1.51-0.57h-2.74V32.23z"
		/>
	<path class="st0" d="M773.98,21.72c5.57,0,10.09,4.52,10.09,10.09c0,5.57-4.52,10.09-10.09,10.09c-5.57,0-10.09-4.52-10.09-10.09
		C763.89,26.24,768.41,21.72,773.98,21.72L773.98,21.72z M773.98,23.45c-4.62,0-8.36,3.75-8.36,8.37c0,4.61,3.74,8.35,8.36,8.35
		c4.62,0,8.37-3.74,8.37-8.35C782.34,27.19,778.6,23.45,773.98,23.45z"/>
	<path class="st0" d="M168.51,71.4V58.13h26.61V47.81h-26.61V35.36h30.14V24.71h-43.33v57.33h44.39V71.4H168.51L168.51,71.4z
		 M265.81,37.32c-6.63,0-12.37,2.7-15.89,7.21c-3.11-4.83-8.36-7.21-14.5-7.21c-5.65,0-10.56,1.96-13.84,5.73v-5.08h-12.21v44.06
		h12.78V59.94c0-7.87,4.01-11.55,9.66-11.55c5.32,0,8.35,3.28,8.35,10.4v23.26h12.78V59.94c0-7.87,4.01-11.55,9.75-11.55
		c5.16,0,8.35,3.28,8.35,10.4v23.26h12.77V56.81C283.83,43.39,276.3,37.32,265.81,37.32L265.81,37.32z M321.34,37.32
		c-5.9,0-10.65,1.88-13.84,5.73v-5.08h-12.2v59.96h12.78V77.38c3.28,3.6,7.78,5.32,13.27,5.32c12.37,0,21.95-8.85,21.95-22.69
		C343.3,46.17,333.71,37.32,321.34,37.32L321.34,37.32z M319.13,72.22c-6.39,0-11.22-4.59-11.22-12.2c0-7.62,4.83-12.21,11.22-12.21
		c6.39,0,11.22,4.59,11.22,12.21C330.35,67.62,325.52,72.22,319.13,72.22L319.13,72.22z M372.78,82.7c14,0,24.16-9.42,24.16-22.69
		c0-13.27-10.16-22.69-24.16-22.69c-14,0-24.25,9.42-24.25,22.69C348.53,73.28,358.77,82.7,372.78,82.7L372.78,82.7z M372.78,72.22
		c-6.39,0-11.31-4.59-11.31-12.2c0-7.62,4.91-12.21,11.31-12.21c6.39,0,11.22,4.59,11.22,12.21C384,67.62,379.17,72.22,372.78,72.22
		L372.78,72.22z M463.69,37.98l-10.72,29.82l-10.49-29.82h-10.81l-10.81,29.82l-10.4-29.82h-12.04l15.89,44.06h12.28l10.24-27.35
		l9.91,27.35h12.28l15.97-44.06H463.69L463.69,37.98z M522.9,60.18c0-14.17-9.99-22.85-22.93-22.85c-13.43,0-23.5,9.5-23.5,22.69
		c0,13.11,9.91,22.69,25.14,22.69c7.94,0,14.09-2.46,18.18-7.13l-6.8-7.38c-3.03,2.87-6.38,4.26-11.06,4.26
		c-6.72,0-11.38-3.36-12.61-8.84h33.33C522.74,62.55,522.9,61.16,522.9,60.18L522.9,60.18z M500.06,46.98
		c5.73,0,9.91,3.61,10.81,9.18h-21.7C490.06,50.51,494.24,46.98,500.06,46.98L500.06,46.98z M543.63,43.79v-5.82h-12.21v44.06h12.78
		v-20.8c0-8.43,4.67-12.28,11.71-12.28c0.99,0,1.8,0.08,2.87,0.16V37.32C551.98,37.32,546.74,39.54,543.63,43.79L543.63,43.79z
		 M596.7,80.56c9.99,0,18.27-3.6,23.67-10.23l-8.51-7.87c-3.85,4.5-8.68,6.8-14.42,6.8c-10.72,0-18.35-7.53-18.35-18.34
		c0-10.82,7.62-18.35,18.35-18.35c5.74,0,10.57,2.3,14.42,6.72l8.51-7.86c-5.4-6.55-13.67-10.16-23.58-10.16
		c-17.86,0-31.13,12.37-31.13,29.65C565.66,68.19,578.93,80.56,596.7,80.56L596.7,80.56z M645.84,34.86c-7.04,0-14.17,1.88-19,5.33
		l4.59,8.93c3.19-2.55,8.02-4.1,12.69-4.1c6.89,0,10.16,3.2,10.16,8.68h-10.16c-13.43,0-18.92,5.4-18.92,13.19
		c0,7.62,6.14,13.35,16.46,13.35c6.47,0,11.06-2.13,13.43-6.15v5.49h11.96V54.43C667.06,41.08,659.28,34.86,645.84,34.86
		L645.84,34.86z M644.86,71.63c-4.5,0-7.21-2.13-7.21-5.33c0-2.95,1.89-5.16,7.87-5.16h8.76v4.51
		C652.81,69.67,649.12,71.63,644.86,71.63L644.86,71.63z M689.17,41.33v-5.81h-12.21v44.06h12.78v-20.8
		c0-8.43,4.67-12.28,11.71-12.28c0.99,0,1.8,0.08,2.87,0.16V34.86C697.52,34.86,692.28,37.07,689.17,41.33L689.17,41.33z
		 M754.69,57.71c0-14.17-9.99-22.85-22.93-22.85c-13.43,0-23.5,9.5-23.5,22.69c0,13.11,9.91,22.69,25.14,22.69
		c7.94,0,14.09-2.46,18.19-7.13l-6.8-7.38c-3.03,2.87-6.39,4.26-11.06,4.26c-6.72,0-11.38-3.36-12.62-8.84h33.34
		C754.53,60.09,754.69,58.69,754.69,57.71L754.69,57.71z M731.84,44.52c5.74,0,9.91,3.6,10.82,9.18h-21.7
		C721.84,48.04,726.02,44.52,731.84,44.52z"/>
	<path class="st0" d="M261.78,105.47v11.83h-13.63v-11.83h-6.94v30h6.94v-12.3h13.63v12.3h6.95v-30H261.78L261.78,105.47z
		 M297.22,124.03c0-7.42-5.23-11.96-12-11.96c-7.03,0-12.3,4.98-12.3,11.87c0,6.86,5.19,11.87,13.16,11.87
		c4.16,0,7.37-1.29,9.52-3.73l-3.56-3.85c-1.59,1.49-3.34,2.22-5.79,2.22c-3.52,0-5.96-1.75-6.6-4.63h17.45
		C297.13,125.27,297.22,124.55,297.22,124.03L297.22,124.03z M285.26,117.13c3,0,5.19,1.89,5.65,4.8h-11.36
		C280.03,118.97,282.22,117.13,285.26,117.13L285.26,117.13z M310.46,112.07c-3.69,0-7.41,0.99-9.94,2.79l2.4,4.67
		c1.67-1.33,4.2-2.15,6.64-2.15c3.6,0,5.31,1.67,5.31,4.54h-5.31c-7.03,0-9.9,2.83-9.9,6.9c0,3.99,3.22,6.99,8.62,6.99
		c3.39,0,5.78-1.12,7.03-3.22v2.87h6.26v-13.16C321.56,115.33,317.49,112.07,310.46,112.07L310.46,112.07z M309.94,131.32
		c-2.36,0-3.77-1.12-3.77-2.79c0-1.54,0.99-2.7,4.12-2.7h4.59v2.36C314.1,130.29,312.17,131.32,309.94,131.32L309.94,131.32z
		 M326.01,135.47h6.69v-31.8h-6.69V135.47L326.01,135.47z M352.93,129.65c-0.73,0.55-1.72,0.86-2.7,0.86c-1.8,0-2.87-1.07-2.87-3.04
		v-9.39h5.74v-5.14h-5.74v-5.61h-6.69v5.61h-3.55v5.14h3.55v9.47c0,5.49,3.17,8.28,8.62,8.28c2.06,0,4.07-0.48,5.44-1.46
		L352.93,129.65L352.93,129.65z M371.78,112.07c-2.96,0-5.53,0.94-7.33,2.74v-11.14h-6.69v31.8h6.69v-11.39
		c0-4.25,2.31-6.22,5.53-6.22c2.96,0,4.67,1.71,4.67,5.45v12.17h6.69v-13.2C381.34,115.25,377.23,112.07,371.78,112.07
		L371.78,112.07z M398.05,135.82c4.84,0,8.66-2.15,10.33-5.83l-5.19-2.83c-1.24,2.23-3.08,3.17-5.19,3.17
		c-3.39,0-6.04-2.36-6.04-6.39c0-4.03,2.66-6.39,6.04-6.39c2.1,0,3.94,0.99,5.19,3.17l5.19-2.78c-1.67-3.77-5.49-5.87-10.33-5.87
		c-7.5,0-12.85,4.93-12.85,11.87C385.2,130.89,390.55,135.82,398.05,135.82L398.05,135.82z M421.67,112.07
		c-3.69,0-7.42,0.99-9.95,2.79l2.4,4.67c1.67-1.33,4.2-2.15,6.65-2.15c3.6,0,5.31,1.67,5.31,4.54h-5.31c-7.03,0-9.9,2.83-9.9,6.9
		c0,3.99,3.22,6.99,8.62,6.99c3.39,0,5.78-1.12,7.03-3.22v2.87h6.25v-13.16C432.76,115.33,428.7,112.07,421.67,112.07L421.67,112.07
		z M421.15,131.32c-2.36,0-3.77-1.12-3.77-2.79c0-1.54,0.99-2.7,4.12-2.7h4.58v2.36C425.31,130.29,423.38,131.32,421.15,131.32
		L421.15,131.32z M443.6,115.46v-3.04h-6.38v23.05h6.68v-10.89c0-4.41,2.45-6.43,6.13-6.43c0.52,0,0.95,0.05,1.5,0.08v-6.17
		C447.98,112.07,445.23,113.23,443.6,115.46L443.6,115.46z M477.16,124.03c0-7.42-5.23-11.96-12-11.96c-7.03,0-12.3,4.98-12.3,11.87
		c0,6.86,5.19,11.87,13.16,11.87c4.16,0,7.38-1.29,9.52-3.73l-3.56-3.85c-1.59,1.49-3.34,2.22-5.79,2.22c-3.51,0-5.95-1.75-6.6-4.63
		h17.44C477.07,125.27,477.16,124.55,477.16,124.03L477.16,124.03z M465.2,117.13c3,0,5.19,1.89,5.66,4.8H459.5
		C459.97,118.97,462.16,117.13,465.2,117.13L465.2,117.13z M504.08,135.99c8.57,0,12.73-4.29,12.73-9.3
		c0-11.01-17.44-7.19-17.44-12.73c0-1.9,1.59-3.43,5.7-3.43c2.66,0,5.53,0.77,8.32,2.36l2.14-5.27c-2.79-1.76-6.65-2.66-10.42-2.66
		c-8.52,0-12.64,4.24-12.64,9.35c0,11.15,17.45,7.29,17.45,12.9c0,1.83-1.67,3.21-5.79,3.21c-3.6,0-7.37-1.29-9.9-3.12l-2.36,5.22
		C494.52,134.57,499.32,135.99,504.08,135.99L504.08,135.99z M533.44,129.65c-0.73,0.55-1.72,0.86-2.7,0.86
		c-1.8,0-2.87-1.07-2.87-3.04v-9.39h5.74v-5.14h-5.74v-5.61h-6.69v5.61h-3.55v5.14h3.55v9.47c0,5.49,3.17,8.28,8.62,8.28
		c2.06,0,4.07-0.48,5.44-1.46L533.44,129.65L533.44,129.65z M547.58,112.07c-3.69,0-7.42,0.99-9.95,2.79l2.4,4.67
		c1.67-1.33,4.2-2.15,6.65-2.15c3.6,0,5.31,1.67,5.31,4.54h-5.31c-7.03,0-9.9,2.83-9.9,6.9c0,3.99,3.22,6.99,8.62,6.99
		c3.39,0,5.78-1.12,7.03-3.22v2.87h6.26v-13.16C558.68,115.33,554.6,112.07,547.58,112.07L547.58,112.07z M547.06,131.32
		c-2.36,0-3.77-1.12-3.77-2.79c0-1.54,0.99-2.7,4.12-2.7h4.58v2.36C551.22,130.29,549.29,131.32,547.06,131.32L547.06,131.32z
		 M571.31,111.94c0-2.27,1.07-3.34,3.05-3.34c1.02,0,1.96,0.3,2.69,0.82l1.76-4.84c-1.24-0.86-3.21-1.25-5.1-1.25
		c-5.74,0-8.92,3.39-8.92,8.58v1.02h-3.56v5.14h3.56v17.4h6.69v-17.4h5.74v-5.14h-5.91V111.94L571.31,111.94z M607.06,109.2
		c2.49,0,4.16-1.63,4.16-3.86c0-2.06-1.67-3.6-4.16-3.6c-2.49,0-4.16,1.62-4.16,3.73C602.9,107.57,604.57,109.2,607.06,109.2
		L607.06,109.2z M594.08,108.6c1.02,0,1.96,0.3,2.7,0.82l1.76-4.84c-1.24-0.86-3.21-1.25-5.1-1.25c-5.74,0-8.92,3.39-8.92,8.58v1.02
		h-3.56v5.14h3.56v17.4h6.68v-17.4h5.74v-5.14h-5.91v-0.98C591.03,109.67,592.1,108.6,594.08,108.6L594.08,108.6z M603.72,135.47
		h6.68v-23.05h-6.68V135.47L603.72,135.47z M629.9,112.07c-3.13,0-5.83,1.07-7.62,3.04v-2.69h-6.39v23.05h6.68v-11.39
		c0-4.25,2.32-6.22,5.53-6.22c2.96,0,4.67,1.71,4.67,5.45v12.17h6.69v-13.2C639.46,115.25,635.34,112.07,629.9,112.07L629.9,112.07z
		 M662.47,112.42v2.95c-1.75-2.23-4.41-3.3-7.62-3.3c-6.39,0-11.53,4.41-11.53,11.14s5.14,11.15,11.53,11.15
		c3,0,5.53-0.95,7.28-2.88v0.99c0,4.16-2.06,6.3-6.78,6.3c-2.96,0-6.17-1.03-8.14-2.62l-2.66,4.8c2.7,2.1,6.94,3.17,11.31,3.17
		c8.32,0,12.94-3.95,12.94-12.52v-19.2H662.47L662.47,112.42z M656.17,128.87c-3.51,0-6.08-2.27-6.08-5.66
		c0-3.39,2.57-5.66,6.08-5.66c3.51,0,6.04,2.27,6.04,5.66C662.21,126.6,659.68,128.87,656.17,128.87L656.17,128.87z M228.16,121.99
		l-72.84,1.44v1.46l72.84,1.44V121.99L228.16,121.99z M683.41,121.99l72.84,1.44v1.46l-72.84,1.44V121.99z"/>
</g>
</svg>
